<svg width="178" height="176" viewBox="0 0 78 76" fill="none" xmlns="http://www.w3.org/2000/svg">
<path d="M35.9912 37.1869C35.9912 37.1869 73.6767 18.9987 77.3109 30.0434C80.9451 41.088 69.226 43.0132 69.226 43.0132C69.226 43.0132 78.338 50.1314 72.0439 58.1362C65.7498 66.141 35.9912 37.1869 35.9912 37.1869Z" fill="#2A166F"/>
<path d="M38.6247 36.351C38.6247 36.351 71.7805 24.2677 65.7498 15.7816C59.719 7.29551 49.3694 16.3389 49.3694 16.3389C49.3694 16.3389 56.6115 0.759936 41.8902 -1.44811e-05C30.4608 -0.582643 38.6247 36.351 38.6247 36.351Z" fill="#2A166F"/>
<path d="M39.3089 37.3641C39.3089 37.3641 63.4845 58.7694 57.2431 66.6982C51.0017 74.627 45.0236 62.9491 45.0236 62.9491C45.0236 62.9491 43.9439 78.1482 31.7771 75.7416C19.6103 73.3351 39.3089 37.3641 39.3089 37.3641Z" fill="#2A166F"/>
<path d="M40.231 37.4402C40.231 37.4402 27.0108 66.369 17.1615 63.2532C7.3122 60.1374 16.8982 50.9167 16.8982 50.9167C16.8982 50.9167 1.62383 54.8431 0.0437281 43.0132C-1.53637 31.1833 40.231 37.4402 40.231 37.4402Z" fill="#2A166F"/>
<path d="M40.7054 38.3523C38.3352 41.4428 5.10039 35.2365 4.12599 24.6985C3.1516 14.1605 16.7931 20.3161 16.7931 20.3161C16.7931 20.3161 6.20646 6.86501 17.8202 1.36803C29.434 -4.12895 43.0755 35.2618 40.7054 38.3523Z" fill="#2A166F"/>
<path d="M43.9443 33.9444C43.9443 33.9444 56.1637 31.6392 62.1681 31.6139L49.1586 34.7297C49.1586 34.7297 62.6421 35.0843 65.46 36.3003L49.0533 36.5282L66.3817 41.9239L47.6048 37.7188C47.6048 37.7188 58.2705 42.6332 61.299 46.9142L47.2361 39.1374L57.4805 49.3208L40.6787 38.1241L41.2581 34.1217L43.9443 33.9444Z" fill="white"/>
<path d="M39.2565 32.4246C39.2565 32.4246 39.3355 23.3559 40.2309 19.1002L40.6523 28.8275C40.6523 28.8275 42.9698 19.2775 44.3392 17.4536L42.0217 29.1822L48.8161 17.6563L42.7064 30.3981C42.7064 30.3981 48.1051 23.5586 51.871 22.0387L43.7335 30.8794L53.1351 25.1291L41.969 35.3885L38.9932 34.3752L39.2565 32.4246Z" fill="white"/>
<path d="M43.0225 43.7478C43.0225 43.7478 48.9216 52.6392 50.8704 57.3762L44.0496 48.1302C44.0496 48.1302 48.1052 58.8708 47.9735 61.5053L42.4695 48.6368L43.4439 64.0638L40.9947 47.9022C40.9947 47.9022 40.231 57.8829 37.5448 61.6573L39.6517 48.0542L34.2793 59.4028L38.4139 42.5319L41.9955 41.6959L43.0225 43.7478Z" fill="white"/>
<path d="M35.8598 44.0772C35.8598 44.0772 28.1436 51.6007 23.772 54.4632L31.6462 46.0024C31.6462 46.0024 21.6388 52.1833 18.9527 52.6393L30.7771 44.6598L15.3711 48.9915L31.2248 43.1146C31.2248 43.1146 20.9278 44.6345 16.5035 42.9372L30.7508 41.8986L18.0309 39.3655L36.0441 39.4921L37.6769 42.6839L35.8598 44.0772Z" fill="white"/>
<path d="M34.1998 36.1484C34.1998 36.1484 24.4558 31.7913 20.2422 28.8528L30.9606 33.0326C30.9606 33.0326 21.7433 26.193 20.4002 23.9638L31.9876 31.8167L22.744 19.6068L33.6204 31.7153C33.6204 31.7153 28.7747 23.0772 28.9328 18.5935L34.6475 30.9047L32.8567 18.7962L38.6767 34.8311L36.1749 37.339L34.1998 36.1484Z" fill="white"/>
<path d="M39.0305 46.4029C44.5266 46.2844 48.8823 41.9026 48.7591 36.6158C48.636 31.3291 44.0806 27.1394 38.5845 27.2579C33.0883 27.3764 28.7327 31.7583 28.8558 37.045C28.979 42.3318 33.5343 46.5215 39.0305 46.4029Z" fill="#F2DE05"/>
<path d="M32.9871 35.8697C32.9608 35.8443 32.9345 35.7937 32.9082 35.7683C32.5659 35.3377 31.9604 35.0591 31.4338 35.3884C30.9862 35.667 30.6703 36.351 31.0389 36.8069C31.0652 36.8323 31.0915 36.8829 31.1179 36.9083C31.4601 37.3389 32.0657 37.6175 32.5922 37.2882C33.0398 37.0096 33.3557 36.3256 32.9871 35.8697Z" fill="#11B7B7"/>
<path d="M33.068 34.4004C34.4634 34.4004 34.4634 32.3232 33.068 32.3232C31.6726 32.3232 31.6726 34.4004 33.068 34.4004Z" fill="#11B7B7"/>
<path d="M33.779 41.8227C35.1744 41.8227 35.1744 39.7455 33.779 39.7455C32.3836 39.7455 32.3836 41.8227 33.779 41.8227Z" fill="#11B7B7"/>
<path d="M38.3346 41.4427C39.73 41.4427 39.73 39.3655 38.3346 39.3655C36.9392 39.3655 36.9392 41.4427 38.3346 41.4427Z" fill="#11B7B7"/>
<path d="M37.3336 36.7563C38.729 36.7563 38.729 34.6791 37.3336 34.6791C35.9383 34.6537 35.9383 36.7563 37.3336 36.7563Z" fill="#11B7B7"/>
<path d="M38.5456 45.3437C39.9409 45.3437 39.9409 43.2665 38.5456 43.2665C37.1502 43.2665 37.1502 45.3437 38.5456 45.3437Z" fill="#11B7B7"/>
<path d="M43.3122 43.0131C44.7075 43.0131 44.7075 40.9359 43.3122 40.9359C41.9168 40.9106 41.9168 43.0131 43.3122 43.0131Z" fill="#11B7B7"/>
</svg>
