<svg width="802" height="614" viewBox="0 0 802 614" fill="none" xmlns="http://www.w3.org/2000/svg">
<path d="M109.071 414.501C155.562 414.501 193.251 345.733 193.251 260.903C193.251 176.074 155.562 107.306 109.071 107.306C62.5787 107.306 24.8896 176.074 24.8896 260.903C24.8896 345.733 62.5787 414.501 109.071 414.501Z" fill="#6C63FF"/>
<path d="M108.298 262.496C112.497 195.637 120.958 150.475 121.043 150.026L119.207 149.748C119.122 150.197 110.646 195.431 106.44 262.377C102.559 324.165 101.623 417.622 119.206 511.966L121.043 511.693C103.489 417.509 104.423 324.193 108.298 262.496Z" fill="#3F3D56"/>
<path d="M184.309 229.754L108.196 266.183L109.075 267.651L185.188 231.222L184.309 229.754Z" fill="#3F3D56"/>
<path d="M28.725 248.012L27.8467 249.481L103.97 285.892L104.849 284.423L28.725 248.012Z" fill="#3F3D56"/>
<path d="M692.789 398.533C753.105 398.533 802 309.319 802 199.267C802 89.2147 753.105 0 692.789 0C632.474 0 583.579 89.2147 583.579 199.267C583.579 309.319 632.474 398.533 692.789 398.533Z" fill="#6C63FF"/>
<path d="M691.463 201.308C696.912 114.555 707.89 55.9559 708 55.374L706.26 55.1104C706.15 55.6927 695.157 114.36 689.702 201.195C684.667 281.339 683.453 402.561 706.26 524.931L708.001 524.672C685.222 402.453 686.435 281.366 691.463 201.308Z" fill="#3F3D56"/>
<path d="M790.552 159.112L691.809 206.373L692.642 207.765L791.385 160.504L790.552 159.112Z" fill="#3F3D56"/>
<path d="M588.401 182.799L587.568 184.191L686.326 231.428L687.159 230.036L588.401 182.799Z" fill="#3F3D56"/>
<path d="M561.209 452.503C583.745 452.503 602.013 419.17 602.013 378.052C602.013 336.934 583.745 303.601 561.209 303.601C538.674 303.601 520.405 336.934 520.405 378.052C520.405 419.17 538.674 452.503 561.209 452.503Z" fill="#E6E6E6"/>
<path d="M561.173 381.26L561.415 381.663L598.308 364.005L597.475 362.613L561.25 379.952C563.255 346.958 567.355 324.809 567.437 324.373L565.697 324.109C565.607 324.585 560.736 350.887 559.007 388.946L522.47 371.459L521.638 372.851L558.531 390.509L558.971 389.773C557.588 421.185 558.363 460.463 565.697 499.81L567.438 499.551C559.442 456.65 559.266 413.83 561.173 381.26Z" fill="#3F3D56"/>
<path d="M767.959 541.278C550.621 479.754 353.546 483.032 226.491 496.615C88.8438 511.332 1.49939 540.965 0.633546 541.263L0 539.789C0.868434 539.491 88.4184 509.787 226.282 495.048C307.376 486.388 389.197 484.517 470.68 489.457C571.835 495.58 671.812 512.471 768.492 539.774L767.959 541.278Z" fill="#3F3D56"/>
<path d="M279.37 523.891C279.37 523.891 279.98 512.469 292.475 513.797L279.37 523.891Z" fill="#3F3D56"/>
<path d="M275.84 513.022C279.294 513.022 282.094 510.518 282.094 507.43C282.094 504.341 279.294 501.837 275.84 501.837C272.386 501.837 269.586 504.341 269.586 507.43C269.586 510.518 272.386 513.022 275.84 513.022Z" fill="#6C63FF"/>
<path d="M276.588 516.847H274.822V527.897H276.588V516.847Z" fill="#3F3D56"/>
<path d="M507.096 526.259C507.096 526.259 507.705 514.837 520.201 516.165L507.096 526.259Z" fill="#3F3D56"/>
<path d="M503.564 515.39C507.018 515.39 509.818 512.886 509.818 509.797C509.818 506.709 507.018 504.205 503.564 504.205C500.11 504.205 497.311 506.709 497.311 509.797C497.311 512.886 500.11 515.39 503.564 515.39Z" fill="#6C63FF"/>
<path d="M504.312 519.215H502.547V530.265H504.312V519.215Z" fill="#3F3D56"/>
<path d="M131.967 506.526C131.967 506.526 132.576 495.105 145.072 496.432L131.967 506.526Z" fill="#3F3D56"/>
<path d="M128.436 495.657C131.89 495.657 134.69 493.153 134.69 490.065C134.69 486.976 131.89 484.472 128.436 484.472C124.983 484.472 122.183 486.976 122.183 490.065C122.183 493.153 124.983 495.657 128.436 495.657Z" fill="#6C63FF"/>
<path d="M129.184 499.482H127.419V510.532H129.184V499.482Z" fill="#3F3D56"/>
<path d="M228.177 491.529C228.177 491.529 228.786 480.108 241.282 481.435L228.177 491.529Z" fill="#3F3D56"/>
<path d="M224.645 480.661C228.099 480.661 230.899 478.157 230.899 475.068C230.899 471.979 228.099 469.476 224.645 469.476C221.192 469.476 218.392 471.979 218.392 475.068C218.392 478.157 221.192 480.661 224.645 480.661Z" fill="#6C63FF"/>
<path d="M225.393 484.485H223.628V495.536H225.393V484.485Z" fill="#3F3D56"/>
<path d="M469.141 512.84C469.141 512.84 469.75 501.419 482.246 502.747L469.141 512.84Z" fill="#3F3D56"/>
<path d="M465.61 501.972C469.064 501.972 471.864 499.468 471.864 496.379C471.864 493.291 469.064 490.787 465.61 490.787C462.156 490.787 459.356 493.291 459.356 496.379C459.356 499.468 462.156 501.972 465.61 501.972Z" fill="#6C63FF"/>
<path d="M466.358 505.797H464.593V516.847H466.358V505.797Z" fill="#3F3D56"/>
<path d="M740.559 489.945L776.888 538.114L743.065 568.36L738.68 560.519L746.196 544.836C746.196 544.836 744.944 530.273 740.559 526.352C736.175 522.431 716.758 498.907 716.758 498.907L740.559 489.945Z" fill="#FFB8B8"/>
<path d="M694.209 334.234C694.209 334.234 701.098 343.984 686.692 385.992C686.692 385.992 753.888 487.408 743.24 494.13C732.592 500.851 703.778 515.726 696.261 511.245C688.745 506.764 634.079 354.958 634.079 354.958L694.209 334.234Z" fill="#2F2E41"/>
<path d="M770.31 529.433L781.272 539.235C786.909 544.276 790.667 551.557 780.019 557.718C769.371 563.88 732.416 586.844 719.889 579.563C707.362 572.281 734.921 565.56 734.921 565.56C734.921 565.56 739.479 550.45 741.898 553.804C744.317 557.158 744.317 563.88 744.317 563.88L770.31 529.433Z" fill="#2F2E41"/>
<path d="M637.837 516.27C637.837 516.27 617.794 549.317 617.794 553.237C617.794 557.158 619.047 568.36 619.047 568.36L580.839 576.762L567.686 571.161L572.07 561.079C572.07 561.079 595.871 553.798 600.882 539.795C605.893 525.792 611.53 511.229 611.53 511.229L637.837 516.27Z" fill="#FFB8B8"/>
<path d="M661.012 187.485C675.541 187.485 687.319 176.953 687.319 163.96C687.319 150.968 675.541 140.436 661.012 140.436C646.483 140.436 634.705 150.968 634.705 163.96C634.705 176.953 646.483 187.485 661.012 187.485Z" fill="#FFB8B8"/>
<path d="M654.122 184.124L666.682 216.395L694.209 205.409C694.209 205.409 675.418 179.643 675.418 176.283L654.122 184.124Z" fill="#FFB8B8"/>
<path d="M650.364 298.947H683.56C683.56 298.947 707.362 331.433 693.582 365.6C691.472 370.832 689.377 378.161 687.286 386.826C682.478 406.754 677.691 433.747 672.785 458.552C665.893 493.394 658.768 523.916 651.022 524.47C635.363 525.591 604.913 525.404 604.913 519.803C604.913 514.201 625.309 352.158 625.309 352.158L629.694 345.436L630.523 316.159C630.653 311.539 632.804 307.149 636.514 303.931C640.223 300.713 645.196 298.924 650.364 298.947Z" fill="#2F2E41"/>
<path d="M617.481 552.957C617.481 552.957 624.684 563.88 622.805 571.721C620.926 579.563 617.794 578.442 604.014 579.563C590.234 580.683 543.258 580.683 543.258 572.841C543.258 565 579.904 554.816 580.058 557.948C580.213 561.079 581.465 567.24 577.707 568.36C573.949 569.481 577.394 568.641 577.394 568.641L617.481 552.957Z" fill="#2F2E41"/>
<path d="M654.127 368.858C654.127 368.858 651.403 408.646 633.23 396.801C615.057 384.956 640.312 363.56 640.312 363.56L654.127 368.858Z" fill="white"/>
<path d="M690.398 316.456C691.271 316.809 692.236 316.941 693.187 316.841C694.139 316.74 695.041 316.41 695.799 315.885C696.898 315.113 697.63 313.998 697.848 312.764C700.475 299.219 703.674 261.669 705.516 242.681C707.828 218.855 696.28 200.401 696.183 200.289L689.377 191.921C688.671 191.046 687.654 190.412 686.492 190.12C685.33 189.829 684.093 189.897 682.98 190.315C682.98 190.315 661.733 210.028 661.655 210.789C661.322 214.057 658.793 221.3 645.613 233.086C631.191 245.982 631.111 257.238 631.431 260.38C631.451 260.587 631.462 260.793 631.463 261C631.435 262.41 631.65 263.815 632.098 265.167C638.138 282.197 633.408 302.585 625.812 323.867C625.524 324.828 625.577 325.846 625.965 326.78C626.352 327.713 627.055 328.515 627.975 329.075C630.194 330.425 627.533 328.422 628.324 329.29C633.56 335.026 641.094 327.031 649.712 318.307C652.714 315.268 656.116 311.823 660.127 308.237C665.64 303.306 676.175 314.558 681.074 314.558C684.297 314.593 687.476 315.24 690.398 316.456Z" fill="#575A89"/>
<path d="M693.319 208.977C693.319 208.977 707.078 219.354 699.261 232.811C691.444 246.268 692.484 256.194 692.484 256.194C692.484 256.194 690.402 348.641 665.977 344.149L654.867 371.579L634.801 365.103L646.404 340.909C646.404 340.909 637.11 340.392 639.826 334.73C641.733 330.752 652.009 287.593 657.957 262.254C660.478 251.516 662.221 243.978 662.221 243.978C662.221 243.978 670.127 206.177 693.319 208.977Z" fill="#575A89"/>
<path opacity="0.2" d="M696.205 255.957L688.469 301.349L692.643 252.812L696.205 255.957Z" fill="black"/>
<path d="M632.31 153.537C632.31 153.537 627.887 122.758 663.974 132.851C663.974 132.851 689.747 128.622 698.199 157.451L706.757 187.67L702.586 185.64L700.641 189.441L693.883 190.972L690.991 185.838L689.591 192.072L634.234 197.007C634.234 197.007 659.027 183.895 659.421 160.395L654.698 164.858L632.31 153.537Z" fill="#2F2E41"/>
<path opacity="0.2" d="M673.478 460.322L685.822 386.77L675.782 466.172L673.478 460.322Z" fill="black"/>
<path d="M693.651 145.6C701.339 145.6 707.571 140.027 707.571 133.153C707.571 126.278 701.339 120.705 693.651 120.705C685.964 120.705 679.731 126.278 679.731 133.153C679.731 140.027 685.964 145.6 693.651 145.6Z" fill="#2F2E41"/>
<path d="M679.308 130.105C679.537 126.947 681.103 123.986 683.688 121.824C686.273 119.663 689.683 118.464 693.221 118.471C692.934 118.439 692.649 118.399 692.356 118.382C690.531 118.276 688.701 118.493 686.97 119.02C685.239 119.547 683.641 120.374 682.268 121.453C680.894 122.532 679.772 123.843 678.965 125.311C678.158 126.778 677.682 128.373 677.565 130.005C677.447 131.637 677.691 133.273 678.281 134.821C678.871 136.369 679.797 137.797 681.004 139.025C682.212 140.253 683.678 141.256 685.32 141.976C686.961 142.697 688.745 143.122 690.57 143.226C690.863 143.243 691.151 143.236 691.441 143.237C687.93 142.839 684.721 141.259 682.467 138.82C680.212 136.38 679.083 133.263 679.308 130.105Z" fill="#2F2E41"/>
<path opacity="0.2" d="M653.928 270.102L641.681 328.798L657.554 263.967L653.928 270.102Z" fill="black"/>
<path d="M654.691 180.913L647.553 185.726C640.202 182.417 634.688 174.763 632.685 167.458L640.463 163.948C641.074 171.4 646.989 176.353 654.691 180.913Z" fill="white"/>
<path d="M657.656 165.009H639.87C639.713 165.009 639.562 164.953 639.451 164.853C639.34 164.754 639.277 164.619 639.277 164.479C639.277 164.338 639.34 164.203 639.451 164.104C639.562 164.004 639.713 163.948 639.87 163.948H657.656C657.813 163.948 657.964 164.004 658.075 164.104C658.186 164.203 658.248 164.338 658.248 164.479C658.248 164.619 658.186 164.754 658.075 164.853C657.964 164.953 657.813 165.009 657.656 165.009Z" fill="white"/>
<path d="M654.098 180.913C654.002 180.913 653.906 180.892 653.821 180.851C653.735 180.811 653.662 180.752 653.608 180.68C653.553 180.608 653.52 180.526 653.509 180.44C653.499 180.354 653.512 180.267 653.548 180.186L658.291 169.583C658.32 169.518 658.363 169.459 658.417 169.409C658.471 169.359 658.536 169.319 658.608 169.292C658.679 169.264 658.756 169.25 658.834 169.249C658.912 169.248 658.99 169.261 659.062 169.287C659.134 169.312 659.2 169.351 659.256 169.4C659.312 169.448 659.356 169.506 659.387 169.571C659.417 169.635 659.434 169.704 659.434 169.773C659.435 169.843 659.42 169.912 659.391 169.977L654.648 180.58C654.605 180.678 654.529 180.762 654.431 180.822C654.333 180.881 654.217 180.913 654.098 180.913Z" fill="white"/>
<path d="M658.852 171.273C661.254 171.273 663.202 168.835 663.202 165.827C663.202 162.82 661.254 160.381 658.852 160.381C656.449 160.381 654.502 162.82 654.502 165.827C654.502 168.835 656.449 171.273 658.852 171.273Z" fill="#FFB8B8"/>
<path d="M352.348 182.232L398.675 191.712L418.248 158.699L378.636 144.869L352.348 182.232Z" fill="#2F2E41"/>
<path d="M376.961 359.944C376.961 359.944 362.07 390.462 362.07 399.34C362.07 399.34 367.964 423.477 366.103 430.135L359.588 442.62L345.937 437.626L342.214 404.334L342.834 351.066L376.961 359.944Z" fill="#FFB9B9"/>
<path d="M385.338 177.393C385.338 177.393 386.579 195.704 384.097 201.252C381.615 206.801 393.405 217.344 393.405 217.344L412.019 195.704C412.019 195.704 399.61 184.606 402.712 172.399L385.338 177.393Z" fill="#FFB9B9"/>
<path d="M346.558 304.18C346.558 304.18 328.563 334.143 345.937 331.924C363.311 329.704 357.416 303.348 357.416 303.348" fill="#E6E6E6"/>
<path d="M357.416 303.348L363.31 250.913L363.001 219.008L349.349 221.227V250.635L346.558 304.18" fill="#FFB9B9"/>
<path d="M342.524 433.742L369.205 424.309L372.307 471.473C372.307 471.473 377.892 485.899 376.03 491.448C376.03 491.448 377.271 500.88 374.169 501.435C371.066 501.99 362.379 503.1 361.759 502.545C361.138 501.99 361.138 500.326 361.138 500.326C361.138 500.326 354.933 504.21 354.313 508.649C354.313 508.649 328.252 515.862 327.632 509.204C327.011 502.545 340.662 496.996 340.662 496.996L351.21 482.57L342.524 433.742Z" fill="#2F2E41"/>
<path d="M432.495 359.944C432.495 359.944 417.604 390.462 417.604 399.34C417.604 399.34 423.498 423.477 421.637 430.135L415.122 442.62L401.471 437.626L397.748 404.334L398.369 351.066L432.495 359.944Z" fill="#FFB9B9"/>
<path d="M398.988 433.742L425.67 424.309L428.772 471.473C428.772 471.473 434.356 485.899 432.495 491.448C432.495 491.448 433.736 500.88 430.633 501.435C427.531 501.99 418.844 503.1 418.224 502.545C417.603 501.99 417.603 500.326 417.603 500.326C417.603 500.326 411.398 504.21 410.778 508.649C410.778 508.649 384.717 515.862 384.097 509.204C383.476 502.545 397.127 496.996 397.127 496.996L407.675 482.57L398.988 433.742Z" fill="#2F2E41"/>
<path d="M411.403 164.634C411.401 169.003 409.597 173.219 406.337 176.474C403.077 179.729 398.589 181.794 393.732 182.275C388.875 182.756 383.991 181.619 380.013 179.081C376.035 176.542 373.244 172.782 372.173 168.519C371.846 167.244 371.683 165.941 371.687 164.634C371.69 159.926 373.784 155.412 377.508 152.085C381.231 148.757 386.28 146.888 391.545 146.888C396.809 146.888 401.858 148.757 405.582 152.085C409.306 155.412 411.4 159.926 411.403 164.634Z" fill="#FFB9B9"/>
<path d="M394.024 200.143L409.433 192.987L416.362 197.923C416.362 197.923 433.115 197.368 439.32 204.027C445.525 210.685 448.938 227.609 448.938 227.609C448.938 227.609 428.462 223.724 430.944 239.261L427.221 230.383L423.808 237.874L382.235 250.636L363.62 222.337C363.62 222.337 351.211 219.008 346.867 226.776C346.867 226.776 347.798 198.755 359.897 197.923C368.035 197.363 374.169 197.368 374.169 197.368L380.994 196.259L385.365 194.871L394.024 200.143Z" fill="#575A89"/>
<path d="M420.396 260.901C420.396 260.901 452.971 348.292 443.664 360.499C443.664 360.499 408.917 376.035 339.422 354.951L367.654 257.017C384.996 253.845 402.577 255.14 420.396 260.901Z" fill="#2F2E41"/>
<path d="M420.396 260.901L429.564 232.727C418.566 222.032 428.058 198.315 428.058 198.315L414.788 195.772C414.788 195.772 401.471 227.886 387.82 224.002C374.169 220.118 381.615 195.149 381.615 195.149L369.206 196.259L363.621 215.679L367.654 257.017C384.475 255.726 402.116 257.228 420.396 260.901Z" fill="#575A89"/>
<path d="M436.528 303.348L440.872 250.635L442.113 219.008L428.463 221.227V250.635L425.67 304.18" fill="#FFB9B9"/>
<path d="M425.67 304.18C425.67 304.18 407.676 334.143 425.049 331.924C442.423 329.704 436.528 303.348 436.528 303.348" fill="white"/>
<path d="M448.938 227.608C448.938 227.608 446.733 199.113 428.29 199.212V232.165C428.29 232.165 442.113 224.834 448.938 227.608Z" fill="#575A89"/>
<path d="M397.893 169.216C397.788 169.216 397.686 169.187 397.6 169.133C397.515 169.078 397.45 169.002 397.415 168.913C397.381 168.824 397.377 168.728 397.406 168.638C397.435 168.548 397.495 168.468 397.577 168.409L407.704 161.165C407.755 161.127 407.815 161.099 407.879 161.082C407.943 161.065 408.011 161.06 408.077 161.066C408.143 161.073 408.208 161.091 408.266 161.12C408.325 161.148 408.376 161.187 408.418 161.234C408.46 161.28 408.491 161.334 408.509 161.391C408.528 161.449 408.534 161.509 408.526 161.568C408.518 161.628 408.498 161.685 408.465 161.737C408.433 161.789 408.389 161.835 408.336 161.872L398.21 169.117C398.12 169.181 398.008 169.216 397.893 169.216Z" fill="white"/>
<path d="M398.661 180.083C398.438 180.327 398.215 180.572 397.982 180.798C395.295 181.887 392.371 182.428 389.421 182.38C386.471 182.332 383.571 181.697 380.93 180.521C378.289 179.345 375.975 177.658 374.154 175.581C372.334 173.505 371.054 171.093 370.407 168.519L380.003 166.94L398.661 168.519C394.387 173.173 394.904 174.785 398.661 180.083Z" fill="white"/>
<path d="M380.332 139.779C380.332 139.779 370.07 141.505 367.697 152.951C367.325 154.881 367.258 156.848 367.496 158.795C367.733 160.998 367.389 165.652 362.039 171.131C358.549 174.685 355.296 178.42 352.299 182.317L363.022 184.87L367.813 168.982C370.136 161.279 373.715 153.924 378.434 147.154L378.532 147.013C378.532 147.013 382.094 155.523 391.64 156.689L388.697 153.224C388.697 153.224 399.856 158.993 406.178 160.755C406.9 160.956 407.546 161.33 408.048 161.835C408.55 162.34 408.888 162.959 409.026 163.623C409.164 164.288 409.096 164.973 408.831 165.606C408.565 166.239 408.112 166.795 407.519 167.214C407.474 167.246 407.428 167.277 407.382 167.309C402.732 170.468 393.245 178.004 396.993 185.295C400.741 192.585 396.37 193.914 396.37 193.914L404.429 191.173L408.118 189.76L407.746 192.199L425.754 192.536C425.754 192.536 430.62 192.51 421.976 180.894C421.976 180.894 419.89 176.539 421.603 173.211C422.977 170.692 423.661 167.916 423.599 165.113C423.054 153.402 417.538 129.577 380.332 139.779Z" fill="#2F2E41"/>
<path d="M127.717 473.356C127.717 473.356 127.717 548.705 108.379 568.469C108.379 568.469 104.235 578.35 102.853 582.056C102.081 584.165 101.158 586.228 100.091 588.232V593.173C100.091 593.173 62.7953 589.467 58.6514 580.821L65.5579 573.409C65.5579 573.409 66.9392 572.174 65.5579 568.469C64.1766 564.763 68.3205 564.763 68.3205 564.763L77.9897 544.999L76.6084 463.475L83.515 351.069L142.911 348.599L127.717 473.356Z" fill="#2F2E41"/>
<path d="M97.3272 585.762C97.3272 585.762 106.996 611.701 97.3272 612.937C87.658 614.172 3.39818 615.407 4.77949 605.525C6.1608 595.643 33.787 596.879 33.787 596.879L62.7945 580.821L97.3272 585.762Z" fill="#2F2E41"/>
<path d="M182.969 351.069C182.969 351.069 185.731 367.127 174.681 384.42C163.631 401.714 170.537 459.769 170.537 459.769L268.61 536.353C268.61 536.353 249.272 565.998 242.365 564.763C235.459 563.528 126.335 484.473 126.335 484.473L83.5146 356.01L182.969 351.069Z" fill="#2F2E41"/>
<path d="M267.262 533.08C267.262 533.08 296.939 539.663 292.93 547.628C288.92 555.592 244.978 619.895 236.384 613.562C227.79 607.228 243.747 587.023 243.747 587.023L244.109 556.517L267.262 533.08Z" fill="#2F2E41"/>
<path d="M160.868 121.32C160.879 127.828 158.377 134.139 153.786 139.187C150.155 143.211 145.363 146.27 139.928 148.033C134.493 149.796 128.622 150.195 122.951 149.188C120.112 148.698 117.364 147.852 114.788 146.676C110.697 144.832 107.1 142.219 104.245 139.014C101.391 135.81 99.3451 132.091 98.2493 128.113C97.632 125.891 97.322 123.61 97.3262 121.32C97.3262 113.785 100.673 106.559 106.632 101.231C112.59 95.9026 120.671 92.9093 129.097 92.9093C137.523 92.9093 145.604 95.9026 151.563 101.231C157.521 106.559 160.868 113.785 160.868 121.32Z" fill="#A0616A"/>
<path d="M154.095 131.342L152.69 167.901L125.958 177.346C125.958 177.346 123.336 139.912 119.636 137.837C115.935 135.762 154.095 131.342 154.095 131.342Z" fill="#A0616A"/>
<path d="M119.429 181.844C119.429 181.844 156.724 148.493 166.393 149.728C176.062 150.963 176.062 154.669 176.062 157.14C176.062 159.61 173.3 160.845 176.062 162.08C178.825 163.316 181.588 162.08 181.588 165.786C181.588 169.492 206.451 206.548 198.163 247.311C189.875 288.073 180.206 307.837 184.35 330.071C188.494 352.305 185.732 357.246 185.732 357.246C185.732 357.246 82.1333 364.657 80.7521 356.01C79.3708 347.364 84.896 352.305 77.9894 346.129C71.0829 339.952 73.8455 339.952 73.8455 336.247C73.8455 332.541 104.234 181.844 119.429 181.844Z" fill="#575A89"/>
<path d="M138.767 349.834C138.767 349.834 122.191 385.656 109.759 377.009C97.3273 368.363 115.284 338.717 115.284 338.717L138.767 349.834Z" fill="white"/>
<path d="M178.825 184.314C178.825 184.314 211.279 187.637 199.196 240.943C187.113 294.249 140.148 356.01 140.148 356.01L108.378 342.423L149.817 269.545L140.148 223.842C140.148 223.842 134.623 180.609 178.825 184.314Z" fill="#575A89"/>
<path opacity="0.2" d="M150.509 270.163L104.925 338.1L109.069 341.805L150.509 270.163Z" fill="black"/>
<path opacity="0.2" d="M174.636 301.822L138.076 355.393H150.508L174.636 301.822Z" fill="black"/>
<path opacity="0.2" d="M92.0523 399.175L90.2158 399.802L126.565 485.027L128.401 484.4L92.0523 399.175Z" fill="black"/>
<path d="M119.624 188.626C120.709 188.626 121.589 187.839 121.589 186.869C121.589 185.898 120.709 185.112 119.624 185.112C118.539 185.112 117.659 185.898 117.659 186.869C117.659 187.839 118.539 188.626 119.624 188.626Z" fill="#D0CDE1"/>
<path d="M102.922 236.07C103.132 236.07 103.337 236.01 103.505 235.899C103.674 235.787 103.799 235.63 103.861 235.451L120.563 187.128C120.602 187.018 120.615 186.902 120.604 186.787C120.592 186.672 120.555 186.56 120.495 186.458C120.434 186.356 120.352 186.265 120.253 186.192C120.154 186.118 120.039 186.062 119.916 186.028C119.792 185.994 119.663 185.982 119.534 185.993C119.405 186.003 119.28 186.037 119.166 186.091C119.052 186.145 118.951 186.218 118.869 186.307C118.786 186.396 118.724 186.499 118.686 186.609L101.984 234.932C101.939 235.064 101.929 235.203 101.954 235.338C101.98 235.474 102.041 235.602 102.132 235.713C102.224 235.823 102.343 235.913 102.48 235.975C102.617 236.038 102.768 236.07 102.922 236.07V236.07Z" fill="#D0CDE1"/>
<path d="M122.727 143.079L114.787 149.834C106.61 146.154 98.7123 136.239 96.4834 128.113L106.9 124.21C107.58 132.497 114.159 138.007 122.727 143.079Z" fill="white"/>
<path d="M124.707 127.748C124.675 127.748 124.644 127.746 124.613 127.742L106.149 125.383C106.063 125.372 105.981 125.346 105.906 125.307C105.831 125.268 105.766 125.215 105.714 125.154C105.662 125.092 105.624 125.021 105.603 124.946C105.581 124.871 105.576 124.793 105.589 124.716C105.601 124.64 105.63 124.566 105.674 124.499C105.718 124.433 105.776 124.374 105.845 124.328C105.915 124.281 105.993 124.247 106.077 124.228C106.161 124.209 106.249 124.204 106.334 124.215L124.798 126.574C124.963 126.595 125.113 126.671 125.218 126.787C125.323 126.903 125.375 127.05 125.363 127.199C125.352 127.348 125.278 127.487 125.156 127.589C125.034 127.691 124.873 127.747 124.707 127.748Z" fill="white"/>
<path d="M122.068 143.079C121.953 143.08 121.839 143.053 121.739 143.001C121.64 142.95 121.556 142.877 121.498 142.788C121.44 142.699 121.409 142.598 121.408 142.495C121.407 142.392 121.437 142.29 121.493 142.201L127.611 132.462C127.653 132.394 127.71 132.334 127.778 132.286C127.846 132.238 127.924 132.203 128.008 132.182C128.091 132.161 128.179 132.155 128.265 132.164C128.351 132.173 128.434 132.198 128.51 132.236C128.585 132.274 128.652 132.325 128.705 132.386C128.759 132.447 128.798 132.517 128.821 132.591C128.845 132.666 128.851 132.744 128.841 132.821C128.83 132.898 128.803 132.972 128.76 133.04L122.642 142.779C122.585 142.87 122.502 142.946 122.401 142.999C122.3 143.052 122.185 143.08 122.068 143.079Z" fill="white"/>
<path d="M143.478 138.39C140.906 137.174 137.918 136.923 135.134 136.167C125.174 133.463 118.502 123.394 120.632 114.283C121.026 113.115 121.203 111.896 121.155 110.677C120.783 107.978 117.695 106.237 114.735 105.619C111.774 105.001 108.624 105.09 105.794 104.096C101.424 102.561 98.5219 98.5456 97.8927 94.3855C97.2635 90.2253 98.6439 85.9824 100.889 82.2957L101.959 85.0477C103.59 83.813 104.8 82.1937 105.453 80.3741C106.668 80.5567 107.811 81.0154 108.772 81.706C109.732 82.3967 110.478 83.2963 110.938 84.3186C112.655 85.2239 112.902 81.5064 114.798 80.958C115.592 80.7284 116.409 81.1646 117.165 81.48C120.986 83.0736 125.425 81.7111 129.524 80.8278C136.621 79.3054 144.02 79.2976 151.121 80.805C155.839 81.8113 160.509 83.5636 163.885 86.6778C166.657 89.2353 168.385 92.5424 169.856 95.8526C173.476 104.001 175.868 112.819 174.673 121.522C173.678 128.644 170.346 135.343 165.098 140.773C162.364 143.59 153.444 153.417 148.553 151.742C142.408 149.637 150.718 141.813 143.478 138.39Z" fill="#2F2E41"/>
</svg>
